<?xml version="1.0" standalone="no"?>
<!DOCTYPE svg PUBLIC "-//W3C//DTD SVG 20010904//EN"
 "http://www.w3.org/TR/2001/REC-SVG-20010904/DTD/svg10.dtd">
<svg version="1.0" xmlns="http://www.w3.org/2000/svg"
 width="300.000000pt" height="300.000000pt" viewBox="0 0 300.000000 300.000000"
 preserveAspectRatio="xMidYMid meet">
<metadata>
Created by potrace 1.10, written by Peter Selinger 2001-2011
</metadata>
<g transform="translate(0.000000,300.000000) scale(0.100000,-0.100000)"
fill="#ffc107" stroke="none">
<path d="M1309 2875 c-346 -56 -633 -210 -845 -453 -233 -266 -349 -574 -347
-922 1 -287 75 -527 238 -769 176 -263 450 -462 755 -550 147 -42 213 -51 388
-51 294 0 522 71 774 239 103 69 252 209 321 301 139 187 224 385 263 618 25
143 15 412 -20 543 -30 115 -62 201 -106 289 -195 389 -556 660 -990 745 -117
23 -324 28 -431 10z m406 -65 c378 -65 695 -277 907 -606 84 -130 158 -333
183 -498 119 -806 -498 -1526 -1309 -1526 -626 0 -1161 432 -1298 1050 -19 86
-23 134 -23 270 0 181 10 254 57 398 68 213 173 388 328 543 302 303 734 441
1155 369z"/>
<path d="M1375 2783 c-74 -6 -237 -44 -316 -73 -173 -64 -325 -159 -454 -285
-507 -493 -525 -1291 -41 -1802 291 -308 703 -450 1124 -387 387 57 754 315
931 654 185 354 205 742 59 1102 -211 516 -744 840 -1303 791z m329 -44 c33
-7 66 -16 73 -21 6 -5 17 -8 25 -7 21 4 127 -30 190 -61 31 -16 59 -26 62 -22
3 3 6 0 6 -6 0 -7 7 -12 15 -12 8 0 23 -9 32 -20 10 -11 25 -20 34 -20 9 0 27
-10 40 -22 14 -13 37 -29 52 -36 17 -7 25 -17 21 -24 -4 -7 -3 -8 5 -4 13 8
231 -206 231 -227 0 -6 7 -17 15 -26 31 -32 108 -162 120 -201 4 -14 14 -33
23 -42 8 -10 12 -18 9 -18 -3 0 3 -20 14 -45 11 -25 17 -50 14 -56 -4 -5 -2
-16 4 -23 17 -21 41 -121 41 -174 0 -26 4 -64 9 -84 5 -22 5 -36 0 -32 -5 3
-9 -2 -9 -10 0 -8 5 -18 11 -21 6 -4 8 -14 4 -23 -3 -9 -8 -53 -10 -97 -6
-109 -16 -163 -53 -280 l-19 -60 -12 56 c-14 66 -43 97 -114 123 -115 43 -198
-22 -202 -158 -2 -57 2 -79 20 -111 67 -121 96 -177 92 -182 -3 -2 -56 14
-118 37 -71 26 -121 39 -136 35 -30 -7 -29 3 7 43 29 31 66 48 41 18 -9 -11 4
-19 70 -46 44 -17 82 -30 84 -28 1 1 -16 35 -39 75 -31 55 -45 71 -58 67 -25
-8 -22 9 7 36 24 23 35 47 15 35 -5 -3 -10 0 -11 7 0 7 -5 1 -11 -15 -6 -16
-14 -24 -21 -20 -7 3 -9 3 -5 -2 4 -4 3 -14 -2 -21 -8 -9 -2 -21 20 -45 16
-18 30 -37 30 -41 0 -15 -27 -8 -54 13 -24 19 -30 20 -57 9 -16 -7 -34 -21
-40 -31 -5 -10 -19 -24 -30 -30 -16 -8 -20 -8 -15 0 23 36 -37 80 -73 55 -11
-8 -21 -12 -21 -7 0 4 -5 1 -9 -7 -15 -25 -1 -71 24 -80 22 -8 46 -33 28 -29
-16 4 -43 -13 -36 -24 4 -6 0 -8 -10 -4 -9 3 -16 3 -15 -1 1 -4 -2 -15 -7 -25
-4 -11 -3 -23 4 -30 14 -14 15 -81 1 -72 -6 4 -8 10 -5 15 3 5 -3 14 -14 19
-11 6 -22 19 -26 30 -8 27 -48 23 -87 -9 -45 -38 -33 -44 26 -14 45 23 79 25
46 3 -12 -8 -3 -21 49 -69 36 -33 66 -58 67 -57 1 1 -3 39 -9 85 -9 69 -13 82
-29 82 -26 0 -22 15 8 29 14 6 43 26 65 43 23 19 43 28 47 22 7 -8 130 -162
139 -173 1 -2 9 2 18 9 9 7 19 9 23 5 4 -4 -2 -12 -12 -19 -36 -21 -81 -64
-74 -71 10 -11 78 34 78 51 0 9 5 12 10 9 6 -3 10 1 10 9 0 9 -29 45 -65 80
-78 76 -84 98 -25 83 22 -6 40 -14 40 -19 0 -4 17 -10 38 -14 20 -4 51 -13 69
-21 38 -15 46 -16 39 -4 -3 5 3 11 14 14 20 5 28 41 11 51 -5 3 -12 18 -15 32
-4 15 -17 41 -30 58 -27 37 -39 66 -26 66 5 0 24 -9 42 -19 50 -29 93 -35 112
-16 9 9 20 14 25 11 5 -3 23 7 40 23 17 16 31 28 31 27 0 -10 -25 -72 -30 -76
-4 -3 -17 -25 -30 -50 -41 -81 -122 -183 -228 -287 -57 -57 -110 -103 -117
-103 -8 0 -18 -6 -22 -13 -12 -19 -87 -67 -105 -67 -9 0 -18 -4 -20 -9 -5 -15
-130 -73 -223 -104 -55 -18 -120 -31 -167 -35 -43 -2 -78 -9 -78 -14 0 -11
-239 -9 -255 2 -5 4 -37 10 -70 13 -33 3 -71 8 -85 11 -49 10 -195 60 -210 72
-8 6 -19 10 -25 8 -6 -2 -11 18 -12 46 -3 55 -3 55 64 40 33 -8 51 -6 83 6 23
9 39 19 36 21 -3 3 7 15 21 27 15 13 30 42 39 74 12 47 11 59 -2 100 -9 26
-21 52 -26 57 -8 7 -9 6 -3 -3 5 -10 3 -11 -11 -4 -11 6 -38 18 -62 28 -23 9
-47 23 -53 30 -10 12 -63 4 -78 -12 -3 -4 2 -4 11 -1 10 3 32 -1 50 -11 18 -9
34 -18 36 -19 2 -1 -5 -14 -15 -30 l-18 -28 27 18 c63 40 118 7 118 -71 0 -58
-26 -109 -71 -140 -40 -28 -89 -25 -124 8 l-23 22 -26 -51 -26 -52 25 -11 c14
-6 25 -15 25 -20 0 -12 -8 -10 -71 20 -58 27 -79 49 -36 39 20 -6 28 7 95 145
39 83 71 152 70 154 -2 1 -12 4 -22 6 -13 2 -21 -5 -26 -22 -4 -14 -26 -64
-49 -112 -22 -48 -41 -92 -41 -98 0 -5 -4 -10 -9 -10 -5 0 -11 -9 -14 -20 -12
-46 -62 -34 -130 33 -21 20 -43 37 -48 37 -17 0 -188 183 -198 213 -2 7 -15
25 -28 41 -26 31 -75 121 -79 145 -2 8 -7 17 -11 20 -13 9 -72 168 -84 226
-38 187 -44 415 -13 522 8 32 17 72 19 89 2 17 13 55 24 84 11 29 18 57 16 61
-3 4 -1 9 4 11 5 1 25 37 45 78 44 91 58 114 79 138 10 10 17 22 17 27 0 23
195 230 265 281 22 16 42 32 45 36 7 9 89 56 113 64 9 4 17 10 17 15 0 5 8 9
18 9 10 0 22 4 28 9 16 16 166 72 234 88 184 41 370 49 514 22z m817 -1519
c45 -13 96 -62 104 -102 10 -44 -19 -103 -60 -122 -43 -21 -71 -20 -122 4 -99
45 -110 169 -19 214 37 18 49 19 97 6z m-423 -318 c4 -28 -24 -41 -44 -20 -20
20 -7 50 20 46 13 -2 22 -12 24 -26z"/>
<path d="M1430 2642 c-36 -9 -67 -20 -68 -24 -2 -5 -8 -6 -13 -2 -5 3 -9 0 -9
-5 0 -6 -7 -11 -15 -11 -20 0 -111 -86 -132 -124 -9 -17 -24 -47 -35 -67 -36
-70 -59 -172 -68 -309 -5 -74 -15 -153 -23 -175 -8 -22 -23 -67 -32 -99 -9
-32 -21 -64 -26 -70 -5 -6 -29 -33 -54 -61 -25 -27 -48 -58 -51 -67 -3 -10
-11 -18 -18 -18 -16 0 -36 -65 -36 -116 0 -53 27 -93 123 -186 75 -72 96 -88
164 -122 13 -6 23 -14 23 -18 0 -5 6 -8 14 -8 7 0 19 -7 26 -15 7 -8 18 -14
24 -13 6 1 36 -10 66 -24 94 -44 270 -61 270 -26 0 6 3 8 6 5 12 -11 40 30 89
129 26 53 54 98 61 101 8 3 11 9 8 14 -3 5 0 9 6 9 11 0 70 41 98 68 7 6 16
12 20 12 4 0 21 12 37 28 35 31 60 48 93 62 12 5 22 13 22 17 0 5 17 17 38 28
20 11 39 22 42 26 3 3 32 23 65 44 33 22 62 42 65 45 3 3 23 18 45 34 48 35
125 118 119 128 -2 4 2 10 9 15 28 17 59 169 45 222 -19 71 -95 162 -129 154
-5 -2 -9 1 -9 6 0 5 -23 14 -50 21 -28 7 -53 16 -56 21 -3 5 -9 7 -14 4 -5 -3
-11 4 -15 15 -3 11 -11 20 -17 20 -6 0 -9 3 -5 6 8 8 -53 60 -83 69 -48 14
-140 58 -140 67 0 4 -6 8 -13 8 -7 0 -19 10 -27 21 -19 27 -30 38 -70 69 -17
14 -43 35 -56 48 -14 12 -32 22 -40 22 -8 0 -23 4 -33 10 -10 5 -35 10 -55 12
-20 1 -36 6 -36 10 0 13 -79 7 -150 -10z m235 -43 c58 -18 77 -31 144 -95 94
-90 98 -93 188 -128 82 -31 121 -63 129 -105 5 -26 11 -29 57 -35 70 -10 116
-31 160 -74 61 -59 72 -137 36 -245 -38 -114 -85 -157 -402 -370 -273 -183
-305 -215 -377 -370 -18 -37 -41 -72 -53 -79 -33 -17 -146 -3 -233 31 -114 44
-224 112 -306 189 -97 92 -128 136 -128 184 0 44 13 67 87 156 66 79 86 117
119 229 18 64 28 127 34 228 10 176 36 256 116 366 70 96 157 138 285 139 50
0 100 -7 144 -21z"/>
<path d="M1434 2586 c-71 -17 -140 -70 -190 -143 -61 -89 -85 -160 -96 -288
-5 -60 -16 -146 -24 -190 -16 -94 -17 -105 -5 -105 14 0 47 78 72 168 22 82
21 112 -5 77 -11 -16 -13 -10 -10 46 1 35 10 91 19 124 16 59 72 165 87 165 4
0 8 6 8 13 0 13 63 67 79 67 5 0 14 6 18 13 13 21 108 38 171 31 64 -7 165
-50 200 -84 19 -18 21 -24 10 -37 -7 -8 -21 -19 -33 -24 -31 -14 -57 -32 -77
-54 -9 -11 -17 -16 -18 -12 0 10 -50 -43 -50 -54 0 -4 -11 -21 -25 -37 -27
-32 -55 -110 -55 -152 1 -14 7 -34 15 -44 14 -19 15 -19 35 -1 11 10 20 23 20
29 0 42 128 236 155 236 5 0 17 8 27 17 27 24 143 23 199 -2 54 -24 113 -81
105 -101 -3 -7 -1 -14 4 -14 12 0 13 -57 1 -64 -4 -3 -11 -18 -14 -33 -6 -28
-96 -133 -113 -133 -6 0 -31 -19 -57 -43 -37 -34 -47 -48 -46 -72 1 -20 3 -23
6 -10 2 11 27 36 54 55 142 100 163 124 199 233 27 83 -14 152 -120 200 -92
43 -178 44 -241 3 -81 -53 -143 -137 -175 -241 -10 -30 -21 -52 -26 -49 -16
10 -7 51 27 122 57 120 176 221 260 222 l29 0 -58 59 c-37 37 -81 69 -116 85
-70 31 -174 41 -246 22z"/>
<path d="M1486 2465 c-57 -52 -81 -88 -71 -105 3 -6 1 -10 -6 -10 -7 0 -5 -8
6 -20 22 -24 40 -25 57 -4 46 55 88 90 134 111 64 29 71 38 48 64 -13 14 -28
18 -65 17 -42 -2 -54 -8 -103 -53z m169 15 c4 -6 -7 -10 -25 -10 -17 0 -48 -9
-69 -20 -41 -20 -111 -94 -111 -117 0 -15 -16 -18 -24 -4 -10 15 52 99 95 131
31 22 53 30 85 30 24 0 46 -4 49 -10z"/>
<path d="M2155 2199 c-12 -6 -31 -40 -49 -86 -34 -92 -100 -164 -189 -208 -44
-21 -55 -30 -44 -37 10 -5 32 -1 60 11 56 24 86 48 136 107 26 30 83 137 69
128 -4 -3 -8 0 -8 6 0 6 7 13 15 16 8 4 15 12 15 20 0 23 45 27 85 8 86 -40
111 -129 66 -234 -26 -61 -88 -143 -102 -134 -5 3 -7 -1 -4 -8 3 -8 -21 -30
-58 -55 -34 -23 -77 -56 -94 -74 -18 -17 -33 -28 -33 -24 0 5 -8 -2 -19 -13
-10 -12 -20 -19 -23 -17 -3 3 -11 -1 -18 -10 -7 -8 -18 -15 -26 -15 -7 0 -19
-6 -26 -13 -26 -25 -86 -55 -97 -48 -7 4 7 20 36 42 88 64 98 74 101 93 4 21
-5 16 -141 -87 -79 -59 -89 -79 -55 -101 13 -8 26 -6 55 8 116 54 385 245 461
326 78 83 111 190 87 284 -16 61 -47 93 -109 111 -57 17 -63 17 -91 4z"/>
<path d="M1227 2093 c-3 -10 -8 -36 -12 -58 -3 -22 -15 -64 -26 -93 -24 -67
-24 -89 1 -97 26 -8 53 8 69 42 7 15 21 45 31 66 l18 37 -28 -22 c-16 -13 -32
-33 -36 -45 -3 -12 -12 -27 -18 -32 -17 -15 -18 12 -1 69 20 66 29 150 17 150
-6 0 -13 -8 -15 -17z"/>
<path d="M2245 2082 c15 -71 -30 -177 -91 -217 -43 -28 -39 -8 10 46 60 66 87
164 49 177 -9 2 -13 -9 -13 -36 0 -26 -8 -49 -22 -68 -13 -15 -17 -25 -10 -20
22 13 13 -1 -28 -43 -46 -47 -47 -52 -21 -75 17 -16 22 -16 48 -2 81 43 138
207 88 254 -16 16 -17 15 -10 -16z"/>
<path d="M1288 1891 c-16 -54 -16 -57 3 -77 11 -11 36 -26 56 -32 49 -15 74 1
95 60 35 103 36 106 22 104 -19 -3 -30 -16 -13 -16 9 0 10 -3 3 -8 -5 -4 -17
-23 -24 -42 -21 -50 -41 -70 -71 -70 -47 0 -61 45 -34 111 3 10 1 19 -7 22 -9
3 -19 -13 -30 -52z"/>
<path d="M1466 1849 c-14 -44 -26 -86 -26 -94 0 -19 108 -95 134 -95 27 0 33
5 87 64 l44 49 -30 -7 c-31 -8 -47 -24 -39 -38 3 -4 -1 -8 -9 -8 -7 0 -23 -9
-35 -21 -20 -18 -23 -18 -28 -4 -4 9 -12 14 -19 11 -7 -2 -28 9 -46 25 -29 25
-32 32 -22 49 13 19 30 150 20 150 -3 0 -17 -36 -31 -81z"/>
<path d="M1070 1767 c-16 -37 -59 -102 -95 -146 -72 -89 -80 -111 -37 -111 43
0 168 -38 250 -76 100 -46 223 -129 308 -207 l70 -65 38 79 c21 44 58 100 82
124 27 28 44 55 44 70 0 60 -231 257 -378 322 -32 14 -77 34 -102 46 -25 11
-69 22 -98 25 l-52 4 -30 -65z m154 14 c32 -12 44 -21 35 -25 -8 -3 -4 -4 8
-2 24 4 73 -14 73 -26 0 -5 6 -8 13 -8 14 0 115 -50 101 -50 -5 -1 9 -9 31
-20 22 -11 36 -19 32 -20 -5 0 6 -12 25 -27 57 -48 105 -97 131 -136 l26 -39
-34 -36 c-19 -21 -51 -67 -70 -104 -20 -38 -38 -68 -40 -68 -2 0 -44 33 -92
73 -48 40 -105 81 -125 90 -20 10 -40 22 -43 27 -3 5 -23 17 -43 27 -20 9 -39
20 -42 24 -3 3 -23 12 -45 19 -22 7 -45 17 -52 22 -7 5 -17 7 -23 3 -5 -3 -10
-1 -10 5 0 6 -4 9 -9 5 -5 -3 -12 -1 -16 5 -3 5 -18 10 -33 10 -51 0 -63 29
-28 66 53 56 106 140 106 168 0 39 50 46 124 17z"/>
<path d="M1680 1718 c-17 -18 -38 -45 -46 -60 -13 -25 -13 -32 1 -58 8 -16 29
-37 47 -46 37 -19 55 -13 138 51 32 24 69 50 84 56 32 15 34 29 4 28 -23 0
-44 -13 -128 -76 -48 -37 -79 -41 -103 -15 -16 17 -20 85 -4 75 4 -2 7 0 7 6
0 5 8 17 17 27 15 14 27 44 18 44 -1 0 -17 -15 -35 -32z"/>
<path d="M1032 1439 c-48 -18 -18 -74 83 -156 116 -94 246 -158 330 -163 64
-4 95 -1 95 11 0 5 -28 38 -63 72 -131 130 -378 261 -445 236z m164 -80 c57
-27 104 -54 104 -60 0 -5 8 -9 18 -9 23 0 152 -112 152 -133 0 -17 -83 0 -148
30 -34 16 -59 33 -55 38 5 4 3 5 -4 1 -7 -4 -26 5 -42 20 -17 15 -41 32 -53
39 -13 6 -22 17 -20 24 1 7 -2 10 -8 6 -5 -3 -21 5 -35 19 -14 15 -30 26 -34
26 -14 0 -20 39 -7 44 21 9 29 6 132 -45z"/>
<path d="M585 1293 c-55 -3 -92 -8 -97 -16 -4 -7 -8 -7 -8 -2 0 12 -129 14
-146 3 -15 -10 7 -93 24 -93 6 0 13 -3 17 -6 9 -10 46 2 39 12 -3 5 8 9 24 9
52 0 76 -67 36 -97 -10 -7 -24 -13 -31 -13 -36 0 -34 -78 3 -121 8 -9 12 -18
9 -20 -2 -3 9 -5 25 -4 21 0 30 5 30 16 0 14 174 189 187 189 11 0 65 68 70
89 8 31 -27 62 -66 59 -14 -1 -66 -4 -116 -5z m-219 -28 c6 -15 55 -15 307 0
89 5 97 -4 45 -50 -163 -143 -238 -220 -232 -238 12 -38 -18 -12 -33 28 -24
67 -26 75 -14 75 6 0 11 -7 11 -15 0 -22 11 -18 52 19 l37 33 -22 56 -22 57
-58 0 c-54 0 -57 -1 -47 -19 6 -12 6 -22 1 -26 -8 -4 -51 74 -51 91 0 11 21 2
26 -11z"/>
<path d="M520 1233 c0 -17 34 -93 40 -91 4 2 31 24 60 51 l52 47 -76 0 c-42 0
-76 -3 -76 -7z"/>
<path d="M712 1071 c7 -9 20 -25 30 -36 17 -20 15 -22 -62 -85 -44 -36 -82
-71 -85 -78 -7 -19 11 -50 35 -57 26 -8 95 24 145 67 38 34 39 36 22 53 -17
17 -18 17 -23 -1 -6 -23 -70 -70 -107 -79 -42 -11 -33 15 20 58 25 20 56 51
68 67 21 29 22 32 7 64 -10 22 -24 36 -39 39 -20 4 -21 2 -11 -12z"/>
<path d="M672 1066 c2 -7 -30 -44 -69 -83 -63 -60 -73 -74 -73 -104 0 -39 18
-69 67 -112 17 -15 35 -37 38 -47 3 -11 9 -19 13 -18 4 1 16 -3 26 -7 15 -6
23 -4 30 10 16 27 70 85 79 85 5 0 20 14 34 30 14 17 28 28 31 26 5 -5 32 39
32 53 0 13 -51 65 -66 67 -16 3 -12 -6 27 -51 17 -19 15 -22 -72 -94 -90 -75
-97 -85 -79 -96 15 -9 12 -25 -5 -25 -8 0 -15 6 -15 13 0 8 -9 22 -20 32 -19
17 -19 18 3 37 l22 20 -24 -6 c-33 -7 -79 19 -87 49 -11 45 5 72 76 129 38 31
70 60 70 64 -1 10 -26 42 -34 42 -4 0 -6 -6 -4 -14z"/>
<path d="M1262 793 c-14 -17 -22 -41 -22 -65 0 -43 18 -88 35 -88 13 0 40 -49
36 -65 -2 -5 -3 -22 -3 -38 0 -15 -2 -25 -6 -23 -4 2 -9 -22 -10 -54 -3 -52 0
-61 24 -85 25 -26 34 -27 84 -14 28 7 39 26 35 59 -2 18 -11 37 -19 44 -11 8
-13 22 -6 60 8 56 34 84 58 64 10 -9 13 -34 10 -105 -3 -83 -1 -93 15 -93 15
0 17 12 17 110 0 103 -1 110 -20 110 -11 0 -20 5 -20 10 0 6 21 10 46 10 44 0
46 -1 40 -25 -4 -14 -3 -68 0 -120 6 -77 10 -95 22 -93 12 2 14 22 13 107 -2
90 0 103 12 92 8 -6 18 -37 22 -67 11 -88 15 -104 31 -129 26 -39 92 -44 119
-9 22 29 18 60 -10 82 -36 29 -57 142 -25 142 4 0 10 6 13 13 3 9 -5 12 -29 9
-27 -3 -34 -9 -34 -26 1 -33 27 -186 33 -192 12 -12 28 9 21 28 -4 15 -2 19 7
16 25 -8 22 -46 -5 -63 -19 -13 -29 -14 -45 -6 -23 13 -26 22 -41 116 -18 114
-18 114 -40 108 -11 -3 -20 -1 -20 5 0 6 10 12 22 14 15 2 25 13 32 36 11 40
26 42 26 2 0 -31 7 -34 50 -20 l25 8 -22 7 c-13 4 -23 14 -23 23 0 8 -3 13 -6
9 -4 -3 -13 0 -21 8 -17 18 -46 3 -62 -32 -6 -13 -17 -23 -26 -23 -8 0 -15 -8
-16 -17 -1 -12 -4 -9 -8 7 -4 16 -2 30 6 38 18 18 16 38 -4 62 -39 45 -97 10
-89 -54 2 -20 1 -36 -2 -37 -4 0 -15 -2 -24 -4 -16 -3 -35 28 -30 47 4 14 -46
20 -67 8 -24 -12 -26 -6 -9 40 10 31 9 35 -16 57 -35 30 -47 29 -74 -4z m64
-17 c6 -15 -41 -116 -55 -116 -7 0 -4 90 4 118 6 17 44 15 51 -2z m232 -70
c-4 -27 -43 -34 -52 -9 -5 11 -1 22 9 30 23 16 47 5 43 -21z m-155 -41 c-5
-34 -5 -35 26 -35 20 0 30 -4 26 -11 -4 -5 -19 -7 -35 -4 l-27 6 -16 -102 c-9
-56 -14 -106 -11 -111 10 -16 24 -8 30 18 5 18 10 22 17 15 7 -7 7 -18 -1 -36
-9 -19 -19 -25 -41 -25 -55 0 -58 32 -25 218 5 28 3 32 -15 32 -11 0 -21 5
-21 11 0 7 10 9 25 5 20 -5 27 -1 40 24 21 40 35 38 28 -5z"/>
<path d="M2090 787 l-25 -22 16 -123 c8 -68 12 -125 7 -128 -5 -3 -50 32 -101
79 -77 70 -96 83 -116 78 l-24 -7 24 -16 c27 -17 100 -80 133 -114 49 -50 101
-54 112 -9 3 13 1 55 -5 94 -21 132 -11 171 26 114 10 -15 30 -41 46 -57 15
-17 25 -36 22 -43 -5 -15 13 -17 34 -4 8 5 10 14 5 22 -8 14 -126 159 -128
159 -1 0 -12 -11 -26 -23z"/>
<path d="M1080 693 c-29 -11 -52 -39 -82 -97 l-30 -59 23 -18 c47 -36 95 -16
130 53 41 80 20 143 -41 121z m26 -58 c-12 -49 -25 -73 -48 -89 -12 -9 -26
-16 -30 -16 -17 0 -7 48 17 80 40 54 72 67 61 25z"/>
<path d="M1452 380 c10 -33 113 -47 143 -19 5 5 -17 9 -56 9 -38 0 -70 5 -78
13 -11 10 -13 9 -9 -3z"/>
<path d="M2412 1174 c-52 -36 -7 -121 76 -144 50 -13 64 -13 90 6 48 34 13
104 -70 138 -47 20 -68 20 -96 0z m72 -29 c8 -8 22 -15 32 -15 20 0 56 -39 51
-54 -11 -33 -116 -5 -138 36 -9 18 -8 24 7 35 23 17 29 16 48 -2z"/>
</g>
</svg>
